<?xml version="1.0" standalone="no"?>
<!DOCTYPE svg PUBLIC "-//W3C//DTD SVG 20010904//EN"
 "http://www.w3.org/TR/2001/REC-SVG-20010904/DTD/svg10.dtd">
<svg version="1.0" xmlns="http://www.w3.org/2000/svg"
 width="300.000000pt" height="300.000000pt" viewBox="0 0 300.000000 300.000000"
 preserveAspectRatio="xMidYMid meet">
<metadata>
Created by potrace 1.10, written by Peter Selinger 2001-2011
</metadata>
<g transform="translate(0.000000,300.000000) scale(0.100000,-0.100000)"
fill="#000000" stroke="none">
<path d="M1040 2389 c-85 -17 -147 -49 -198 -103 -60 -63 -76 -108 -70 -195 6
-77 23 -116 81 -178 111 -121 269 -129 362 -20 19 22 35 47 35 54 0 7 5 13 11
13 16 0 6 -67 -16 -113 -22 -47 -63 -77 -188 -139 -133 -66 -152 -80 -187
-141 -65 -114 -59 -220 19 -308 62 -71 115 -92 251 -100 89 -5 125 -11 158
-28 117 -60 136 -229 33 -298 -55 -37 -113 -27 -132 24 -12 33 4 76 34 91 l22
11 -21 0 c-25 1 -52 -34 -60 -79 -5 -24 -1 -35 24 -60 61 -60 160 -32 210 60
49 93 13 209 -84 266 -40 24 -61 28 -163 34 -66 4 -131 14 -152 22 -136 58
-192 215 -122 339 40 71 98 110 197 134 146 34 222 116 219 236 -2 98 -34 128
-65 61 -11 -23 -35 -48 -65 -67 -93 -58 -230 -32 -311 61 -52 58 -81 161 -51
180 8 4 9 -3 4 -25 -6 -27 -4 -31 14 -31 27 0 47 -36 30 -56 -10 -12 -8 -19
10 -37 21 -20 24 -20 34 -6 15 24 57 4 57 -28 0 -19 5 -23 30 -23 24 0 30 4
30 23 0 13 9 26 24 33 19 9 25 8 36 -9 12 -19 12 -19 38 6 24 24 25 28 10 44
-22 25 -6 67 22 60 17 -4 20 0 20 29 0 29 -3 34 -24 34 -30 0 -42 37 -19 62
15 16 14 19 -8 37 -23 20 -25 20 -39 2 -21 -24 -60 -8 -60 26 0 19 -5 23 -30
23 -24 0 -30 -4 -30 -23 0 -12 -9 -28 -19 -34 -16 -10 -22 -8 -36 8 -18 19
-18 19 -40 -4 -18 -19 -19 -24 -7 -39 18 -21 0 -58 -28 -58 -24 0 -25 10 -6
53 65 152 316 204 510 105 53 -27 134 -104 158 -152 11 -21 22 -63 25 -92 5
-48 9 -55 32 -60 14 -3 33 -8 41 -11 8 -4 94 -9 190 -13 159 -5 180 -8 230
-31 30 -14 70 -38 88 -53 41 -35 84 -108 91 -155 7 -38 28 -46 23 -8 -8 62
-69 158 -127 202 -18 14 -65 37 -106 51 -62 22 -95 26 -219 30 -175 5 -182 9
-224 113 -39 97 -98 161 -189 206 -106 52 -199 65 -307 44z m-15 -181 c27 -12
55 -54 55 -83 0 -83 -119 -119 -164 -50 -32 49 -15 108 37 130 40 18 40 18 72
3z"/>
<path d="M948 2145 c-9 -21 -8 -28 7 -45 23 -25 40 -25 65 0 24 24 25 34 4 54
-24 25 -63 20 -76 -9z"/>
<path d="M1337 2152 c-37 -40 -9 -112 44 -112 57 0 87 60 53 108 -19 28 -74
30 -97 4z"/>
<path d="M1478 1935 c-12 -13 14 -99 43 -141 39 -57 91 -95 171 -124 35 -12
78 -33 95 -46 47 -35 83 -104 90 -167 5 -47 2 -62 -22 -105 -41 -75 -92 -107
-171 -107 -48 0 -69 5 -91 21 -38 28 -50 73 -29 110 l15 29 1 -38 c0 -52 14
-73 56 -87 76 -25 150 20 174 105 17 61 5 100 -49 155 -38 39 -59 51 -121 70
-41 12 -91 30 -110 41 -46 24 -100 75 -100 93 0 8 -5 27 -10 42 l-11 28 -20
-35 c-30 -49 -88 -108 -129 -129 -33 -17 -140 -51 -202 -64 -34 -8 -94 -59
-114 -97 -29 -56 -13 -129 38 -175 42 -39 72 -48 184 -55 130 -8 182 -27 244
-89 102 -102 107 -239 14 -349 -76 -90 -221 -92 -265 -4 -17 33 -29 34 -29 1
0 -28 29 -67 63 -85 42 -21 96 -18 157 8 59 25 105 75 144 156 25 49 28 65 23
119 -6 75 -37 135 -99 189 -62 54 -113 74 -231 89 -116 15 -133 22 -171 67
-26 31 -39 96 -14 71 16 -16 23 -15 42 4 22 22 20 43 -6 53 -22 9 -21 10 14
25 21 9 61 21 90 27 73 16 166 59 211 98 l37 33 41 -31 c46 -33 108 -56 180
-66 89 -12 169 -86 169 -157 0 -29 -32 -82 -62 -102 -19 -12 -31 -13 -64 -5
-52 13 -68 41 -48 87 11 26 19 32 44 32 16 0 30 4 30 9 0 13 -60 35 -69 25 -4
-5 -28 -34 -53 -64 -44 -53 -45 -57 -33 -85 24 -57 84 -95 147 -95 123 0 229
109 227 232 -2 121 -65 215 -187 278 -42 22 -84 45 -92 52 -33 28 -80 90 -80
104 0 12 5 10 19 -7 18 -23 25 -24 158 -26 214 -3 248 -8 292 -48 20 -19 50
-59 65 -89 26 -51 27 -59 17 -106 -19 -89 -15 -126 20 -162 24 -27 28 -28 19
-9 -8 15 -10 47 -6 90 20 205 20 201 -16 261 -22 36 -49 64 -82 85 l-49 30
-197 2 c-147 2 -208 6 -241 17 -49 18 -53 18 -61 11z"/>
<path d="M1816 1827 c-21 -15 -15 -51 10 -61 24 -9 54 12 54 38 0 34 -33 46
-64 23z"/>
<path d="M1697 1818 c-11 -9 -16 -20 -12 -30 16 -41 89 -27 83 15 -4 26 -44
35 -71 15z"/>
<path d="M1923 1804 c-10 -26 11 -49 43 -49 20 0 30 6 32 19 8 37 -62 64 -75
30z"/>
<path d="M2207 1670 c-64 -164 -67 -183 -37 -248 10 -23 20 -46 21 -50 1 -4
10 -20 21 -35 18 -25 26 -28 52 -23 50 10 50 23 1 35 -41 10 -48 16 -65 57
-26 59 -25 129 1 199 11 30 18 61 16 68 -3 8 -6 8 -10 -3z"/>
<path d="M1342 1603 c-22 -9 -35 -43 -21 -59 16 -20 43 -18 63 5 14 15 15 24
6 40 -11 21 -23 24 -48 14z"/>
<path d="M1216 1531 c-15 -17 -16 -23 -6 -36 16 -19 54 -19 70 0 34 41 -28 76
-64 36z"/>
<path d="M1112 1510 c-31 -13 -27 -54 6 -58 30 -5 54 16 50 42 -3 24 -23 29
-56 16z"/>
<path d="M1558 1447 c-22 -19 -48 -67 -35 -67 7 0 69 81 65 85 -2 2 -16 -6
-30 -18z"/>
<path d="M2100 1423 c0 -19 39 -74 65 -92 57 -39 53 -19 -7 40 -32 30 -58 54
-58 52z"/>
<path d="M1149 921 c-16 -16 -29 -39 -29 -50 0 -29 5 -27 31 17 13 20 27 43
32 50 14 22 -4 13 -34 -17z"/>
</g>
</svg>
